<svg xmlns="http://www.w3.org/2000/svg" width="128" height="128" viewBox="0 0 128 128"><defs><linearGradient id="IconifyId1932c3d15557238f417" x1="1915.16" x2="1892.237" y1="-1061.496" y2="-1081.433" gradientTransform="matrix(.18703 0 0 -.18703 -269.539 -118.36)" gradientUnits="userSpaceOnUse"><stop offset="0" stop-color="#6E3D09"/><stop offset=".242" stop-color="#EA8113"/><stop offset=".621" stop-color="#5C3307"/><stop offset="1" stop-color="#E07C12"/></linearGradient><linearGradient id="IconifyId1932c3d15557238f418" x1="2014.528" x2="2023.719" y1="-1149.438" y2="-1140.932" gradientTransform="matrix(.18703 0 0 -.18703 -271.54 -119.16)" gradientUnits="userSpaceOnUse"><stop offset="0" stop-color="#BDBDBD"/><stop offset=".333" stop-color="#E2E2E2"/><stop offset=".667" stop-color="#A3A3A3"/><stop offset="1" stop-color="#ddd"/></linearGradient><linearGradient id="IconifyId1932c3d15557238f419" x1="2769.363" x2="2755.794" y1="1.109" y2="12.318" gradientTransform="scale(.1594 -.1594)rotate(-27.635 522.5 3793.968)" gradientUnits="userSpaceOnUse"><stop offset="0" stop-color="#fff"/><stop offset="1" stop-color="#fff" stop-opacity="0"/></linearGradient><radialGradient id="IconifyId1932c3d15557238f420" cx="1284.155" cy="-757.829" r="18.754" gradientTransform="matrix(.28738 .00206 -.0021 -.29335 -257.74 -125.72)" gradientUnits="userSpaceOnUse"><stop offset="0" stop-color="#696969"/><stop offset="1"/></radialGradient></defs><radialGradient id="IconifyId1932c3d15557238f421" cx="359.596" cy="-303.644" r="45.158" gradientTransform="matrix(1.13129 0 0 -.49211 -344.577 -67.372)" gradientUnits="userSpaceOnUse"><stop offset="0"/><stop offset="1" stop-opacity="0"/></radialGradient><radialGradient id="IconifyId1932c3d15557238f422" cx="202.968" cy="-16.74" r="47.581" gradientTransform="matrix(2.00579 0 0 -1.46728 -363.204 30.498)" gradientUnits="userSpaceOnUse"><stop offset="0" stop-color="#857C63"/><stop offset="1" stop-color="#221F19"/></radialGradient><linearGradient id="IconifyId1932c3d15557238f423" x1="377.399" x2="349.841" y1="-70.445" y2="-75.913" gradientTransform="matrix(1.13129 0 0 -1.13129 -349.06 -4.586)" gradientUnits="userSpaceOnUse"><stop offset="0"/><stop offset="1" stop-opacity="0"/></linearGradient><linearGradient id="IconifyId1932c3d15557238f424" x1="349.459" x2="407.97" y1="-38.103" y2="-104.522" gradientTransform="matrix(1.13129 0 0 -1.13129 -344.718 -4.979)" gradientUnits="userSpaceOnUse"><stop offset="0" stop-color="#fff"/><stop offset="1" stop-color="#fff" stop-opacity="0"/></linearGradient><radialGradient id="IconifyId1932c3d15557238f425" cx="260.968" cy="17.46" r="8.698" gradientTransform="matrix(1.90622 0 0 -1.90622 -461.693 77.79)" gradientUnits="userSpaceOnUse"><stop offset="0" stop-color="#fff"/><stop offset="1" stop-color="#B9B9B0"/></radialGradient><radialGradient id="IconifyId1932c3d15557238f426" cx="209.674" cy="-170.214" r="11.954" gradientTransform="matrix(.90164 -.5204 -.6075 -1.05323 -282.637 -12.069)" gradientUnits="userSpaceOnUse"><stop offset="0" stop-color="#5B676B"/><stop offset="1" stop-color="#141718"/></radialGradient><linearGradient id="IconifyId1932c3d15557238f427" x1="157.619" x2="156.868" y1="-207.564" y2="-226.784" gradientTransform="scale(1.13128 -1.13128)rotate(37 -155.633 -353.53)" gradientUnits="userSpaceOnUse"><stop offset="0" stop-color="#fff"/><stop offset="1" stop-color="#fff" stop-opacity="0"/></linearGradient><radialGradient id="IconifyId1932c3d15557238f428" cx="238.858" cy="30.974" r="8.698" gradientTransform="matrix(2.2377 0 0 -2.2377 -475.222 113.66)" gradientUnits="userSpaceOnUse"><stop offset="0" stop-color="#fff"/><stop offset="1" stop-color="#B9B9B0"/></radialGradient><linearGradient id="IconifyId1932c3d15557238f429" x1="367.057" x2="362.519" y1="-72.712" y2="-73.805" gradientTransform="matrix(1.13129 0 0 -1.13129 -344.718 -4.979)" gradientUnits="userSpaceOnUse"><stop offset="0"/><stop offset="1" stop-opacity="0"/></linearGradient><path fill="url(#IconifyId1932c3d15557238f421)" d="M113.342 82.018c0 12.217-22.852 22.174-51.135 22.174s-51.134-9.956-51.134-22.174s22.852-22.173 51.133-22.173c28.284 0 51.136 9.955 51.136 22.173"/><path fill="url(#IconifyId1932c3d15557238f422)" d="M26.572 27.49s8.031 16.63 26.924 16.177c39.482-1.018 46.383-21.607 47.4-24.549c1.019-2.941 2.49-2.489 2.83.226c12.897 116.75-89.26 66.634-92.88 46.836c20.25-5.883 15.386-17.31 15.386-17.31z"/><path fill="#2e3436" d="M102.654 16.552c-.512-.081-1 .193-1.36.607c-.361.413-.663.995-.933 1.774c-.513 1.483-2.422 7.193-9.102 12.746S73.126 42.595 53.483 43.102c-18.557.444-26.403-15.86-26.403-15.86l-1.035-2.147l-.04 2.386l-.34 21.5l.046.11s1.134 2.638-.11 6.034s-4.893 7.6-14.912 10.51l-.49.143l.09.504c.492 2.685 2.562 5.682 5.721 8.763s7.43 6.228 12.408 9.078c9.955 5.698 22.73 10.202 35.052 10.409s24.228-3.938 32.16-15.513c7.934-11.575 11.89-30.474 8.658-59.738v-.008q-.133-1.088-.505-1.79c-.25-.467-.617-.85-1.13-.931zm-.176 1.116c.025.004.153.06.306.348c.153.287.3.765.38 1.39c3.215 29.11-.76 47.728-8.467 58.973c-7.707 11.246-19.15 15.225-31.208 15.022s-24.693-4.642-34.507-10.26c-4.908-2.81-9.11-5.913-12.18-8.906c-2.9-2.827-4.662-5.53-5.21-7.734c9.733-2.97 13.716-7.283 15.072-10.987c1.32-3.606.245-6.394.135-6.671l.308-19.365c2.326 3.888 10.343 15.14 26.403 14.754c19.839-.511 31.577-5.952 38.471-11.683c6.895-5.731 8.946-11.786 9.45-13.245c.24-.691.503-1.158.715-1.402c.213-.244.307-.238.332-.234"/><path fill="url(#IconifyId1932c3d15557238f423)" d="M41.504 76.814c18.893 3.732 28.509.227 34.052-4.072c-1.47-1.924-4.072-4.072-4.072-4.072s6.562 1.809 8.937 4.863c2.263 2.941.904 4.865.226 8.598c-1.358-3.394-3.846-4.639-4.186-5.996c-4.977 7.127-17.535 6.788-34.957.679"/><path fill="url(#IconifyId1932c3d15557238f424)" d="m101.575 23.774l-1.048 1.725c-1.554 2.554-3.893 5.56-7.35 8.575q-.002 0-.005.004c-7.245 6.014-19.432 11.514-39.575 11.965h-.004c-11.69.334-19.088-5.315-23.663-10.337l-.946-1.038l-.38 14.053l.027.087c.338 1.124 1.086 3.637-.215 7.22c-1.384 3.726-5.762 7.85-13.587 10.869l-.563.217l.253.547c.677 1.468 1.425 3.057 3.62 5.14l.006.005l.005.006c2.875 2.874 6.977 5.946 11.761 8.68c9.573 5.47 21.971 9.8 33.642 10.029c11.668.228 22.317-3.594 29.665-14.273l.002-.004l.004-.004c6.555-9.89 10.28-26.415 8.35-51.49zm-1.088 3.713c1.607 23.919-2.018 39.79-8.207 49.128c-7.132 10.357-17.297 13.998-28.704 13.775c-11.406-.225-23.673-4.493-33.103-9.882c-4.714-2.694-8.754-5.726-11.534-8.506l-.005-.006l-.006-.004c-1.858-1.76-2.515-3.017-3.121-4.306c7.628-3.068 12.153-7.184 13.67-11.265l.002-.002v-.002c1.38-3.797.614-6.615.26-7.804l.303-11.246c4.767 4.921 12.21 10.131 23.584 9.806c20.345-.455 32.816-6.035 40.28-12.234l.006-.004l.004-.004a37.6 37.6 0 0 0 6.572-7.444z" opacity=".185"/><path fill="url(#IconifyId1932c3d15557238f425)" d="M47.047 52.49c0 6.337-5.09 11.427-11.426 11.427A11.393 11.393 0 0 1 24.195 52.49a11.394 11.394 0 0 1 11.426-11.426c6.335 0 11.426 5.204 11.426 11.426"/><path fill="#888a85" d="M35.622 40.622a11.846 11.846 0 0 0-11.87 11.868c0 6.573 5.296 11.87 11.87 11.87a11.845 11.845 0 0 0 11.867-11.87c0-6.463-5.29-11.868-11.867-11.868m0 .885c6.092 0 10.983 5.003 10.983 10.983a10.94 10.94 0 0 1-10.983 10.983A10.94 10.94 0 0 1 24.638 52.49a10.94 10.94 0 0 1 10.984-10.983"/><path fill="url(#IconifyId1932c3d15557238f426)" d="M24.422 56.79c5.543 7.693 5.543 16.97.113 20.93c-5.43 3.959-14.255.904-19.799-6.788c-5.542-7.694-5.542-16.97-.112-20.93c5.43-3.846 14.254-.791 19.798 6.788"/><path d="M9.175 47.813c-1.767.145-3.432.704-4.877 1.728l-.004.002l-.003.002c-2.885 2.104-4.305 5.61-4.29 9.523s1.442 8.26 4.276 12.195c2.834 3.933 6.51 6.693 10.217 7.968c3.707 1.274 7.486 1.052 10.374-1.055c2.885-2.103 4.306-5.61 4.292-9.523c-.015-3.846-1.431-8.106-4.172-11.987v-.06l-.107-.145l-.002-.005c-2.835-3.875-6.51-6.606-10.215-7.88c-1.853-.637-3.721-.907-5.489-.762zm.106 1.123c1.587-.128 3.29.117 5.016.71c3.45 1.187 6.958 3.773 9.666 7.475l.002.002c2.707 3.758 4.048 7.896 4.062 11.534c.013 3.64-1.28 6.75-3.826 8.606c-2.54 1.853-5.89 2.083-9.338.897c-3.449-1.186-6.959-3.8-9.668-7.56s-4.05-7.897-4.064-11.536c-.014-3.635 1.28-6.743 3.82-8.6l.003-.002c1.269-.897 2.741-1.398 4.327-1.526"/><path fill="#2e3436" d="M43.88 54.189c0 3.054-2.489 5.429-5.43 5.429c-3.055 0-5.43-2.489-5.43-5.43s2.489-5.43 5.43-5.43s5.43 2.375 5.43 5.43z"/><path d="M38.449 48.095c-3.315 0-6.094 2.777-6.094 6.093c0 3.298 2.68 6.094 6.096 6.094c3.298 0 6.093-2.679 6.093-6.094c0-3.414-2.796-6.093-6.095-6.093m0 1.328c2.584 0 4.767 2.072 4.767 4.765a4.76 4.76 0 0 1-4.765 4.766a4.76 4.76 0 0 1-4.768-4.766c0-2.567 2.2-4.765 4.766-4.765"/><path fill="url(#IconifyId1932c3d15557238f427)" d="M8.734 50.856c-1.26.114-2.375.522-3.332 1.183h-.058l-.15.11s0 .003-.002.003c-1.87 1.375-2.949 3.85-2.83 7.146v.002c.116 3.176 1.287 7.013 3.961 10.503c2.558 3.372 5.912 5.698 8.995 6.646c3.048.939 5.657.716 7.632-.766c1.993-1.493 2.943-4.075 2.943-7.241c0-3.208-1.289-7.036-3.848-10.41c-2.553-3.365-5.798-5.699-8.883-6.648h-.006c-1.581-.468-3.075-.65-4.422-.528m.122 1.122c1.17-.103 2.504.054 3.975.49c2.796.86 5.886 3.051 8.311 6.248c2.419 3.188 3.619 6.826 3.619 9.726c0 2.942-.86 5.114-2.49 6.336c-1.643 1.232-3.786 1.462-6.62.59c-2.802-.862-6.007-3.059-8.427-6.249v-.002h-.002C4.694 65.82 3.6 62.19 3.492 59.26c-.109-3.034.85-5.077 2.367-6.193l.01-.008c.813-.61 1.817-.976 2.987-1.08z" opacity=".281"/><path fill="#fff" d="M13.787 57.695c0 3.281-2.262 5.882-4.977 5.882s-4.978-2.6-4.978-5.882c0-3.28 2.263-5.883 4.978-5.883c2.828 0 4.977 2.602 4.977 5.883M40.033 51.7a3.814 3.814 0 0 1-3.845 3.846A3.816 3.816 0 0 1 32.34 51.7a3.815 3.815 0 0 1 3.848-3.847a3.814 3.814 0 0 1 3.846 3.847z"/><path fill="url(#IconifyId1932c3d15557238f428)" d="M72.615 53.736c0 7.353-5.995 13.348-13.35 13.348c-7.352 0-13.348-5.995-13.348-13.348s5.882-13.35 13.235-13.35c7.354 0 13.463 5.997 13.463 13.35"/><path fill="#888a85" d="M59.152 40.01c-7.558 0-13.612 6.17-13.612 13.725c0 7.558 6.167 13.727 13.726 13.727s13.727-6.169 13.727-13.727c0-7.562-6.282-13.726-13.841-13.726zm0 .753c7.149 0 13.085 5.828 13.085 12.972c0 7.148-5.823 12.971-12.971 12.971s-12.972-5.823-12.972-12.971c0-7.152 5.71-12.972 12.858-12.972"/><path fill="#2e3436" d="M68.768 55.773c0 3.506-2.828 6.447-6.447 6.447c-3.508 0-6.45-2.828-6.45-6.447c0-3.622 2.83-6.45 6.449-6.45c3.507 0 6.448 2.828 6.448 6.449z"/><path d="M62.319 48.758c-3.914 0-7.013 3.099-7.013 7.015c0 3.926 3.203 7.013 7.015 7.013c3.925 0 7.012-3.203 7.012-7.013v-.002c0-3.927-3.203-7.013-7.014-7.013m0 1.13c3.203 0 5.884 2.569 5.884 5.883v.002c0 3.201-2.57 5.882-5.882 5.882c-3.204 0-5.885-2.57-5.885-5.882c0-3.327 2.558-5.884 5.883-5.884z"/><path fill="#fff" d="M64.357 52.718c0 2.489-2.036 4.411-4.412 4.411s-4.412-2.036-4.412-4.411c0-2.49 2.036-4.412 4.411-4.412c2.376 0 4.412 2.036 4.412 4.412z"/><path fill="url(#IconifyId1932c3d15557238f417)" d="m99.966 93.641l2.597-5.178c-9.664-7.077-27.43-12.196-27.43-12.196c-3.065-1.446-4.065 1.342-1.901 3.15c-.044.013 15.162 10.923 26.734 14.224"/><path fill="#673907" d="M71.638 78.125c.189.575.587 1.141 1.145 1.634v.002s.051.06.062.07c.014.013.018.015.024.02l.014.013l.046.036l.135.1q.174.127.503.36c.438.308 1.076.75 1.88 1.29a150 150 0 0 0 6.505 4.132c5.263 3.154 11.977 6.726 17.858 8.404l.451.128l.21-.419l2.812-5.606l-.386-.282C93.072 80.81 75.29 75.723 75.29 75.723l.085.032c-.84-.397-1.59-.531-2.234-.418s-1.169.508-1.427 1.036c-.258.529-.276 1.142-.075 1.752zm1.094-.332c-.125-.377-.107-.71-.002-.923c.104-.214.269-.359.606-.418c.338-.06.863 0 1.555.327l.041.02l.043.012s17.27 5.028 26.855 11.851l-2.148 4.282c-5.595-1.674-12.056-5.082-17.148-8.134a149 149 0 0 1-6.455-4.1a105 105 0 0 1-2.349-1.625l-.116-.087l-.006-.004l-.014-.011c-.47-.393-.737-.814-.862-1.19"/><path fill="url(#IconifyId1932c3d15557238f418)" d="m112.359 98.427l1.389-3.095l-10.762-6.897l-.841-.088l-.351-1.191c-1.578.992-3.815 4.625-3.217 6.655l1.165-.44l.618.633z"/><path fill="#888a85" d="m98.206 94.556l1.39-.524l.449.46l12.613 4.649l.217-.482l1.589-3.54l-11.286-7.233l-.597-.063l-.455-1.544l-.634.397c-.95.598-1.904 1.799-2.622 3.154c-.719 1.355-1.215 2.855-.836 4.141zm.937-1.563c.01-.754.226-1.689.726-2.633a8.8 8.8 0 0 1 1.64-2.168l.2.678l1.085.113l10.238 6.562l-.973 2.168l-11.383-4.196l-.787-.806z"/><path fill="#fff" d="M104.839 92.354a.566.566 0 0 0 .296.744l7.14 3.074a.566.566 0 0 0 .744-.296a.566.566 0 0 0-.296-.744l-7.14-3.074a.566.566 0 0 0-.744.296"/><path fill="url(#IconifyId1932c3d15557238f420)" d="M128 111.462c-3.357-11.382-4.552-20.477-13.328-19.664c-7.096.654-7.567 10.768-.258 13.6c7.037 2.72 13.586 6.064 13.586 6.064"/><path fill="#fff" d="M115.192 92.748a2.965 2.965 0 0 1 3.656 1.99a2.965 2.965 0 0 1-1.99 3.657a2.965 2.965 0 0 1-3.657-1.99a2.965 2.965 0 0 1 1.991-3.657" opacity=".528"/><path fill="#fff" d="M102.355 88.573a1.963 1.963 0 0 1 2.457 1.337a1.963 1.963 0 0 1-1.338 2.457a1.963 1.963 0 0 1-2.456-1.338a1.963 1.963 0 0 1 1.337-2.456"/><path fill="url(#IconifyId1932c3d15557238f419)" d="M123.785 104.649s-1.109-4.085-3.509-6.207c-.847-.757.212-1.885 1.035-.88c1.717 2.083 2.474 7.087 2.474 7.087" opacity=".428"/><path fill="url(#IconifyId1932c3d15557238f429)" d="M61.868 81.452c4.185.453 8.031-.792 9.502-1.357c.227-1.585 1.471-4.525 5.77-4.751l-1.47-2.602s-5.544 3.732-11.427 4.864z"/></svg>