<svg xmlns="http://www.w3.org/2000/svg" xmlns:xlink="http://www.w3.org/1999/xlink" viewBox="0,0,256,256" width="480px" height="480px"><g fill-opacity="0" fill="#dddddd" fill-rule="nonzero" stroke="none" stroke-width="1" stroke-linecap="butt" stroke-linejoin="miter" stroke-miterlimit="10" stroke-dasharray="" stroke-dashoffset="0" font-family="none" font-weight="none" font-size="none" text-anchor="none" style="mix-blend-mode: normal"><path d="M0,256v-256h256v256z" id="bgRectangle"></path></g><g fill="none" fill-rule="nonzero" stroke="none" stroke-width="1" stroke-linecap="butt" stroke-linejoin="miter" stroke-miterlimit="10" stroke-dasharray="" stroke-dashoffset="0" font-family="none" font-weight="none" font-size="none" text-anchor="none" style="mix-blend-mode: normal"><g transform="translate(-64,64) scale(5.33333,5.33333)"><path d="M34.807,12.511l-3.488,12.077c-3.03,-2.052 -6.327,-3.744 -13.318,-0.83l3.408,-11.945l0.041,-0.019c6.964,-2.886 10.337,-1.347 13.357,0.717z" fill="#03a9f4"></path><path d="M36.633,13.68l-3.447,11.943c3.028,2.069 6.383,3.718 13.365,0.805l3.324,-11.643c-7.115,2.455 -10.215,0.946 -13.242,-1.105z" fill="#ffc107"></path><path d="M35.387,10.337l3.441,-11.964c-3.028,-2.061 -6.386,-3.717 -13.374,-0.797l-3.443,12.014c2.775,-1.153 4.969,-1.682 6.806,-1.666c2.787,0.018 4.746,1.178 6.57,2.413z" fill="#ff5722"></path><path d="M40.643,-0.369l-3.44,12.033c3.018,2.063 6.669,3.752 13.359,0.738l3.438,-11.987c-6.979,2.902 -10.335,1.273 -13.357,-0.784z" fill="#7cb342"></path></g></g></svg>